<svg width="551" height="114" viewBox="0 0 551 114" fill="none" xmlns="http://www.w3.org/2000/svg">
<path d="M116.112 93.7C106.212 106.45 91.3621 113.2 73.3621 113.2C0.162109 113.2 3.31211 0.999999 73.6621 0.999999C97.2121 0.999999 115.962 13.6 116.112 26.2C116.262 35.2 109.212 39.7 102.312 39.7C97.2121 39.7 92.1121 37.15 89.8621 32.35C85.0621 22 90.1621 5.8 73.8121 5.8C41.4121 5.8 36.4621 102.25 86.8621 102.25C96.4621 102.25 106.212 98.5 112.512 91C112.812 90.55 113.262 90.4 113.862 90.4C115.362 90.4 117.312 92.05 116.112 93.7ZM161.35 61.9L151.15 40.3L143.35 61.9H161.35ZM164.65 2.5L209.05 97.9C210.1 100.15 212.65 103.45 214.6 104.8C217.75 106.9 220.9 107.5 220.9 109.75C220.9 111.1 219.85 112 218.5 112H172.15C170.8 112 169.75 111.1 169.75 109.75C169.75 108.4 171.25 107.2 175 105.55C177.55 104.5 178.3 101.65 176.95 98.05C174.4 91.15 169 78.55 163.45 66.4H141.85L131.65 94.75C127.75 105.7 134.8 106.15 137.8 108.1C139.6 109.15 139.75 112 137.2 112H114.25C111.85 112 111.1 109.3 112.75 107.8C115.9 104.95 122.2 106.6 126.4 94.75L159.55 2.5C160 1.44999 161.05 0.849992 162.1 0.849992C163.15 0.849992 164.2 1.44999 164.65 2.5ZM317.334 20.2V111.25C317.334 112.45 316.134 113.2 314.784 113.2C313.734 113.2 312.834 112.9 312.084 112L234.234 21.7V94C234.234 106.75 242.484 105.25 244.884 108.1C246.084 109.6 245.484 112 243.084 112H220.134C217.734 112 217.134 109.6 218.334 108.1C220.734 105.25 228.984 106.75 228.984 94V20.2C228.984 7.45 220.734 8.94999 218.334 6.1C216.984 4.45 217.884 2.19999 220.134 2.19999H245.484C251.934 2.19999 255.684 3.54999 257.784 6.1L312.084 69.4V20.2C312.084 7.45 303.834 8.94999 301.434 6.1C300.234 4.6 300.834 2.19999 303.234 2.19999H326.184C328.584 2.19999 329.184 4.6 327.984 6.1C325.584 8.94999 317.334 7.45 317.334 20.2ZM396.572 64.9V90.4C396.572 101.95 401.972 108.55 411.422 108.55C424.622 108.55 431.822 95.5 431.822 81.7C431.522 61.9 420.422 53.05 410.822 53.05C404.072 53.05 397.922 57.25 396.572 64.9ZM396.572 16.3V54.85C404.672 45.85 420.122 43.9 420.122 24.7C420.122 15.85 416.222 10.9 409.022 10.9C404.222 10.9 399.422 13.15 396.572 16.3ZM446.072 19.75C446.072 31.75 437.222 40 416.822 47.2C444.572 47.2 459.422 63.25 459.422 79.45C459.422 96.25 444.422 113.2 413.522 113.2C409.472 113.2 400.172 112 396.572 112H358.322C355.922 112 355.322 109.6 356.522 108.1C358.922 105.25 367.172 106.75 367.172 94V20.2C367.172 7.45 358.922 8.94999 356.522 6.1C355.322 4.6 355.922 2.19999 358.322 2.19999H381.572C391.322 2.19999 394.772 5.2 395.972 10.9C402.422 4.89999 412.772 0.999999 423.272 0.999999C437.222 0.999999 446.072 8.2 446.072 19.75ZM460.816 2.19999H499.066C513.766 2.19999 528.166 2.79999 542.716 3.39999C545.266 3.54999 546.916 4.89999 547.366 7.59999C548.416 13.9 549.016 17.35 550.216 23.5C550.516 25.45 549.616 26.8 548.266 26.8C547.666 26.8 546.916 26.5 546.316 25.9C543.616 23.65 541.816 7.9 529.216 7.45C524.716 7.3 508.816 6.99999 504.466 6.84999C501.316 6.7 499.066 8.34999 499.066 10.6V54.85H516.466C529.216 54.85 527.716 45.1 530.566 42.7C531.016 42.25 531.616 42.1 532.216 42.1C533.416 42.1 534.466 42.85 534.466 44.5V69.7C534.466 71.35 533.416 72.1 532.216 72.1C531.616 72.1 531.016 71.95 530.566 71.5C527.716 69.1 529.216 59.35 516.466 59.35H499.066V103.6C499.066 105.85 501.316 107.5 504.466 107.35C508.816 107.2 524.716 106.9 529.216 106.75C541.816 106.3 543.616 90.55 546.316 88.3C546.916 87.7 547.666 87.4 548.266 87.4C549.616 87.4 550.516 88.75 550.216 90.7C549.016 96.85 548.416 100.3 547.366 106.6C546.916 109.3 545.266 110.65 542.716 110.8C528.166 111.4 513.766 112 499.066 112H460.816C458.416 112 457.816 109.6 459.016 108.1C461.416 105.25 469.666 106.75 469.666 94V20.2C469.666 7.45 461.416 8.94999 459.016 6.1C457.816 4.6 458.416 2.19999 460.816 2.19999Z" fill="#282425"/>
</svg>
