<svg width="808" height="114" viewBox="0 0 808 114" fill="none" xmlns="http://www.w3.org/2000/svg">
<path d="M5.16855 2.19999H28.1186C36.5186 2.19999 40.4186 4.6 42.2186 8.49999L70.7186 73L92.3186 9.4C93.8186 4.74999 97.4186 2.19999 106.269 2.19999H130.569C132.969 2.19999 133.569 4.6 132.369 6.1C129.969 8.94999 121.419 7.45 121.719 20.2L123.219 94C123.519 106.75 131.469 105.25 133.869 108.1C135.069 109.6 134.469 112 132.069 112H84.9686C82.5686 112 81.9686 109.6 83.1686 108.1C85.5686 105.25 93.9686 106.75 93.8186 94L92.6186 24.1L62.6186 111.7C62.3186 112.75 61.2686 113.35 60.0686 113.35C59.0186 113.35 57.9686 112.75 57.5186 111.7L19.1186 26.35L17.7686 94C17.4686 106.75 26.0186 105.25 28.4186 108.1C29.6186 109.6 29.0186 112 26.6186 112H3.66855C1.26855 112 0.668555 109.6 1.86855 108.1C4.26855 105.25 12.2186 106.75 12.5186 94L14.0186 20.2C14.3186 7.45 5.76855 8.94999 3.36855 6.1C2.01855 4.45 3.06855 2.19999 5.16855 2.19999ZM179.923 61.9L169.723 40.3L161.923 61.9H179.923ZM183.223 2.5L227.623 97.9C228.673 100.15 231.223 103.45 233.173 104.8C236.323 106.9 239.473 107.5 239.473 109.75C239.473 111.1 238.423 112 237.073 112H190.723C189.373 112 188.323 111.1 188.323 109.75C188.323 108.4 189.823 107.2 193.573 105.55C196.123 104.5 196.873 101.65 195.523 98.05C192.973 91.15 187.573 78.55 182.023 66.4H160.423L150.223 94.75C146.323 105.7 153.373 106.15 156.373 108.1C158.173 109.15 158.323 112 155.773 112H132.823C130.423 112 129.673 109.3 131.323 107.8C134.473 104.95 140.773 106.6 144.973 94.75L178.123 2.5C178.573 1.44999 179.623 0.849992 180.673 0.849992C181.723 0.849992 182.773 1.44999 183.223 2.5ZM276.807 20.2V103.6C276.807 105.85 279.057 107.5 282.207 107.35C286.557 107.2 302.457 106.9 306.957 106.75C319.557 106.3 321.357 90.55 324.057 88.3C324.657 87.7 325.407 87.4 326.007 87.4C327.357 87.4 328.257 88.75 327.957 90.7C326.757 96.85 326.157 100.3 325.107 106.6C324.657 109.3 323.007 110.65 320.457 110.8C305.907 111.4 291.507 112 276.807 112H238.557C236.157 112 235.557 109.6 236.757 108.1C239.157 105.25 247.407 106.75 247.407 94V20.2C247.407 7.45 239.157 8.94999 236.757 6.1C235.557 4.6 236.157 2.19999 238.557 2.19999H285.657C288.057 2.19999 288.657 4.6 287.457 6.1C285.057 8.94999 276.807 7.45 276.807 20.2ZM374.364 61.9L364.164 40.3L356.364 61.9H374.364ZM377.664 2.5L422.064 97.9C423.114 100.15 425.664 103.45 427.614 104.8C430.764 106.9 433.914 107.5 433.914 109.75C433.914 111.1 432.864 112 431.514 112H385.164C383.814 112 382.764 111.1 382.764 109.75C382.764 108.4 384.264 107.2 388.014 105.55C390.564 104.5 391.314 101.65 389.964 98.05C387.414 91.15 382.014 78.55 376.464 66.4H354.864L344.664 94.75C340.764 105.7 347.814 106.15 350.814 108.1C352.614 109.15 352.764 112 350.214 112H327.264C324.864 112 324.114 109.3 325.764 107.8C328.914 104.95 335.214 106.6 339.414 94.75L372.564 2.5C373.014 1.44999 374.064 0.849992 375.114 0.849992C376.164 0.849992 377.214 1.44999 377.664 2.5ZM484.54 77.95V94C484.54 106.75 492.79 105.25 495.19 108.1C496.39 109.6 495.79 112 493.39 112H447.19C444.79 112 444.19 109.6 445.39 108.1C447.79 105.25 456.04 106.75 456.04 94V83.05L419.14 16.3C418.54 15.25 417.94 14.35 417.34 13.45C414.04 7.59999 407.29 7.74999 407.29 4.45C407.29 3.1 408.34 2.19999 409.69 2.19999H456.04C457.39 2.19999 458.44 3.1 458.44 4.45C458.44 5.8 456.94 6.99999 453.19 8.65C450.64 9.69999 449.44 12.7 451.24 16.15L481.69 72.55L504.64 19.45C509.29 8.49999 502.24 8.34999 499.39 6.55C497.59 5.35 497.59 2.19999 500.14 2.19999H523.54C525.94 2.19999 526.39 4.89999 524.74 6.39999C521.29 9.24999 514.99 7.59999 509.89 19.45L484.54 77.95ZM569.566 0.999999C587.416 0.999999 605.116 8.2 609.766 17.35C614.566 26.95 606.616 34.3 598.816 34.3C595.666 34.3 592.366 32.95 590.266 29.95C583.966 21.25 584.566 6.24999 568.216 6.24999C558.616 6.24999 550.366 11.35 550.366 18.7C550.366 42.55 615.316 49.3 615.316 82.15C615.316 103.3 590.866 113.2 569.116 113.2C550.216 113.2 526.666 105.7 522.616 97.75C517.666 88 526.066 80.65 534.166 80.65C537.466 80.65 540.766 81.85 542.866 84.85C546.016 89.2 548.266 97.6 554.266 102.55C558.316 106 564.316 107.95 571.666 107.95C583.366 107.95 591.766 102.85 591.766 94.45C591.766 73.6 525.016 63.7 525.016 29.2C525.016 12.7 543.466 0.999999 569.566 0.999999ZM654.997 20.2V94C654.997 106.75 663.247 105.25 665.647 108.1C666.847 109.6 666.247 112 663.847 112H616.747C614.347 112 613.747 109.6 614.947 108.1C617.347 105.25 625.597 106.75 625.597 94V20.2C625.597 7.45 617.347 8.94999 614.947 6.1C613.747 4.6 614.347 2.19999 616.747 2.19999H663.847C666.247 2.19999 666.847 4.6 665.647 6.1C663.247 8.94999 654.997 7.45 654.997 20.2ZM712.563 61.9L702.363 40.3L694.563 61.9H712.563ZM715.863 2.5L760.263 97.9C761.313 100.15 763.863 103.45 765.813 104.8C768.963 106.9 772.113 107.5 772.113 109.75C772.113 111.1 771.063 112 769.713 112H723.363C722.013 112 720.963 111.1 720.963 109.75C720.963 108.4 722.463 107.2 726.213 105.55C728.763 104.5 729.513 101.65 728.163 98.05C725.613 91.15 720.213 78.55 714.663 66.4H693.063L682.863 94.75C678.963 105.7 686.013 106.15 689.013 108.1C690.813 109.15 690.963 112 688.413 112H665.463C663.063 112 662.313 109.3 663.963 107.8C667.113 104.95 673.413 106.6 677.613 94.75L710.763 2.5C711.213 1.44999 712.263 0.849992 713.313 0.849992C714.363 0.849992 715.413 1.44999 715.863 2.5ZM779.298 45.1C779.298 37.15 784.848 31 793.398 31C801.948 31 807.498 37.45 807.498 45.1C807.498 52.75 801.948 59.2 793.398 59.2C784.998 59.2 779.298 52.9 779.298 45.1ZM779.298 99.7C779.298 91.75 784.848 85.6 793.398 85.6C801.948 85.6 807.498 92.05 807.498 99.7C807.498 107.35 801.948 113.8 793.398 113.8C784.998 113.8 779.298 107.5 779.298 99.7Z" fill="#282425"/>
</svg>
