<svg width="618" height="113" viewBox="0 0 618 113" fill="none" xmlns="http://www.w3.org/2000/svg">
<path d="M72.3248 112.2C0.174804 112.2 0.324804 -1.43051e-06 72.3248 -1.43051e-06C144.625 -1.43051e-06 144.475 112.2 72.3248 112.2ZM72.3248 5.1C38.7248 5.1 38.7248 106.95 72.3248 106.95C105.175 106.95 105.175 5.1 72.3248 5.1ZM186.89 58.35H167.99V93C167.99 105.75 176.24 104.25 178.64 107.1C179.84 108.6 179.24 111 176.84 111H129.74C127.34 111 126.74 108.6 127.94 107.1C130.34 104.25 138.59 105.75 138.59 93V19.2C138.59 6.45 130.34 7.94999 127.94 5.1C126.74 3.6 127.34 1.19999 129.74 1.19999H167.99C182.69 1.19999 197.09 1.79999 211.64 2.39999C214.19 2.54999 215.84 3.89999 216.29 6.59999C217.34 12.9 217.94 16.35 219.14 22.5C219.44 24.45 218.54 25.8 217.19 25.8C216.59 25.8 215.84 25.5 215.24 24.9C212.54 22.65 210.74 6.9 198.14 6.45C193.64 6.3 177.74 5.99999 173.39 5.84999C170.24 5.7 167.99 7.34999 167.99 9.59999V53.85H186.89C199.64 53.85 198.14 44.1 200.99 41.7C201.44 41.25 202.04 41.1 202.64 41.1C203.84 41.1 204.89 41.85 204.89 43.5V68.7C204.89 70.35 203.84 71.1 202.64 71.1C202.04 71.1 201.44 70.95 200.99 70.5C198.14 68.1 199.64 58.35 186.89 58.35ZM288.182 1.19999H317.582C331.382 1.19999 337.682 1.79999 352.232 2.39999C354.782 2.54999 356.432 3.89999 356.882 6.59999C357.932 12.9 358.532 16.35 359.732 22.5C360.032 24.45 359.132 25.8 357.782 25.8C357.182 25.8 356.432 25.5 355.832 24.9C353.132 22.65 351.332 6.9 338.732 6.45L322.982 5.84999C319.832 5.7 317.582 7.34999 317.582 9.59999V93C317.582 105.75 325.832 104.25 328.232 107.1C329.432 108.6 328.832 111 326.432 111H279.332C276.932 111 276.332 108.6 277.532 107.1C279.932 104.25 288.182 105.75 288.182 93V9.59999C288.182 7.34999 285.932 5.7 282.782 5.84999L267.032 6.45C254.432 6.9 252.632 22.65 249.932 24.9C249.332 25.5 248.582 25.8 247.982 25.8C246.632 25.8 245.732 24.45 246.032 22.5C247.232 16.35 247.832 12.9 248.882 6.59999C249.332 3.89999 250.982 2.54999 253.532 2.39999C268.082 1.79999 274.382 1.19999 288.182 1.19999ZM397.247 19.2V60.6C398.447 60.75 399.647 60.9 401.147 60.9H429.347C431.147 60.9 432.647 60.75 433.997 60.45V19.2C433.997 6.45 425.747 7.94999 423.347 5.1C422.147 3.6 422.747 1.19999 425.147 1.19999H472.247C474.647 1.19999 475.247 3.6 474.047 5.1C471.647 7.94999 463.397 6.45 463.397 19.2V93C463.397 105.75 471.647 104.25 474.047 107.1C475.247 108.6 474.647 111 472.247 111H425.147C422.747 111 422.147 108.6 423.347 107.1C425.747 104.25 433.997 105.75 433.997 93V65.85C432.647 65.55 431.147 65.4 429.347 65.4H401.147C399.647 65.4 398.447 65.55 397.247 65.7V93C397.247 105.75 405.497 104.25 407.897 107.1C409.097 108.6 408.497 111 406.097 111H358.997C356.597 111 355.997 108.6 357.197 107.1C359.597 104.25 367.847 105.75 367.847 93V19.2C367.847 6.45 359.597 7.94999 357.197 5.1C355.997 3.6 356.597 1.19999 358.997 1.19999H406.097C408.497 1.19999 409.097 3.6 407.897 5.1C405.497 7.94999 397.247 6.45 397.247 19.2ZM512.778 19.2V93C512.778 105.75 521.028 104.25 523.428 107.1C524.628 108.6 524.028 111 521.628 111H474.528C472.128 111 471.528 108.6 472.728 107.1C475.128 104.25 483.378 105.75 483.378 93V19.2C483.378 6.45 475.128 7.94999 472.728 5.1C471.528 3.6 472.128 1.19999 474.528 1.19999H521.628C524.028 1.19999 524.628 3.6 523.428 5.1C521.028 7.94999 512.778 6.45 512.778 19.2ZM571.545 -1.43051e-06C589.395 -1.43051e-06 607.095 7.2 611.745 16.35C616.545 25.95 608.595 33.3 600.795 33.3C597.645 33.3 594.345 31.95 592.245 28.95C585.945 20.25 586.545 5.24999 570.195 5.24999C560.595 5.24999 552.345 10.35 552.345 17.7C552.345 41.55 617.295 48.3 617.295 81.15C617.295 102.3 592.845 112.2 571.095 112.2C552.195 112.2 528.645 104.7 524.595 96.75C519.645 87 528.045 79.65 536.145 79.65C539.445 79.65 542.745 80.85 544.845 83.85C547.995 88.2 550.245 96.6 556.245 101.55C560.295 105 566.295 106.95 573.645 106.95C585.345 106.95 593.745 101.85 593.745 93.45C593.745 72.6 526.995 62.7 526.995 28.2C526.995 11.7 545.445 -1.43051e-06 571.545 -1.43051e-06Z" fill="#282425"/>
</svg>
