<svg width="551" height="113" viewBox="0 0 551 113" fill="none" xmlns="http://www.w3.org/2000/svg">
<path d="M45.2777 9.9C43.9277 9.9 42.5777 10.05 41.2277 10.35C41.6777 13.05 41.8277 16.5 41.8277 20.4V60.9C41.8277 72.45 47.2277 79.05 55.6277 79.05C82.7777 79.05 81.7277 9.9 45.2777 9.9ZM41.8277 80.85V93C41.8277 105.75 50.0777 104.25 52.4777 107.1C53.6777 108.6 53.0777 111 50.6777 111H3.57773C1.17773 111 0.577734 108.6 1.77773 107.1C4.17773 104.25 12.4277 105.75 12.4277 93V19.2C12.4277 6.45 4.17773 7.94999 1.77773 5.1C0.577734 3.6 1.17773 1.19999 3.57773 1.19999H26.8277C33.1277 1.19999 36.7277 2.54999 38.8277 4.95C44.5277 1.79999 51.4277 -1.43051e-06 58.7777 -1.43051e-06C116.078 -1.43051e-06 116.528 83.7 58.7777 83.7C52.3277 83.7 46.7777 82.65 41.8277 80.85ZM142.418 20.4V62.55C145.268 58.95 150.218 56.85 156.218 56.85C180.368 56.85 182.318 9.9 148.868 9.9C146.318 9.9 144.068 10.05 141.968 10.65C142.418 13.35 142.418 16.65 142.418 20.4ZM151.268 111H104.168C101.768 111 101.168 108.6 102.368 107.1C104.768 104.25 113.018 105.75 113.018 93V19.2C113.018 6.45 104.768 7.94999 102.368 5.1C101.168 3.6 101.768 1.19999 104.168 1.19999H127.418C133.718 1.19999 137.468 2.39999 139.568 4.95C145.568 1.79999 153.218 -1.43051e-06 162.068 -1.43051e-06C209.168 -1.43051e-06 214.118 51.15 172.568 60.15C190.418 68.85 195.518 91.8 200.168 98.25C203.918 103.5 207.668 102.45 209.318 104.25C210.518 105.6 209.768 107.4 207.518 108.6C203.468 110.85 198.068 112.2 191.468 112.2C153.968 112.2 171.668 61.95 153.068 61.95C144.218 61.95 142.418 73.2 142.418 91.35C142.418 107.1 149.318 102.6 153.068 107.1C154.268 108.6 153.668 111 151.268 111ZM262.291 112.2C190.141 112.2 190.291 -1.43051e-06 262.291 -1.43051e-06C334.591 -1.43051e-06 334.441 112.2 262.291 112.2ZM262.291 5.1C228.691 5.1 228.691 106.95 262.291 106.95C295.141 106.95 295.141 5.1 262.291 5.1ZM357.806 67.95C357.806 82.5 360.056 103.2 383.156 103.2C401.456 103.2 411.206 92.4 411.206 69C411.206 69 411.206 43.95 411.206 19.2C411.206 6.45 402.956 7.94999 400.556 5.1C399.356 3.6 399.956 1.19999 402.356 1.19999H425.306C427.706 1.19999 428.306 3.6 427.106 5.1C424.706 7.94999 416.456 6.45 416.456 19.2C416.456 43.35 416.456 49.8 416.456 73.95C416.456 93.9 405.956 112.35 370.256 112.35C334.556 112.35 328.406 89.1 328.406 68.1C328.406 68.1 328.406 48 328.406 19.2C328.406 6.45 320.156 7.94999 317.756 5.1C316.556 3.6 317.156 1.19999 319.556 1.19999H366.656C369.056 1.19999 369.656 3.6 368.456 5.1C366.056 7.94999 357.806 6.45 357.806 19.2C357.806 47.7 357.806 62.85 357.806 67.95ZM465.134 20.4V89.4C465.134 99 469.184 107.55 479.684 107.55C513.284 107.55 508.034 9.75 475.184 9.75C470.984 9.75 467.384 11.4 464.984 14.7C465.134 16.5 465.134 18.3 465.134 20.4ZM464.384 9.3C469.934 3.45 478.034 -1.43051e-06 487.334 -1.43051e-06C539.834 -1.43051e-06 550.484 112.2 483.434 112.2C479.384 112.2 468.734 111 464.984 111H426.884C424.484 111 423.884 108.6 425.084 107.1C427.484 104.25 435.734 105.75 435.734 93V19.2C435.734 6.45 427.484 7.94999 425.084 5.1C423.884 3.6 424.484 1.19999 426.884 1.19999H450.134C459.434 1.19999 463.034 4.04999 464.384 9.3Z" fill="#282425"/>
</svg>
