<svg width="463" height="118" viewBox="0 0 463 118" fill="none" xmlns="http://www.w3.org/2000/svg">
<path d="M42.4572 6.19999H71.8572C85.6572 6.19999 91.9572 6.79999 106.507 7.39999C109.057 7.54999 110.707 8.89999 111.157 11.6C112.207 17.9 112.807 21.35 114.007 27.5C114.307 29.45 113.407 30.8 112.057 30.8C111.457 30.8 110.707 30.5 110.107 29.9C107.407 27.65 105.607 11.9 93.0072 11.45L77.2572 10.85C74.1072 10.7 71.8572 12.35 71.8572 14.6V98C71.8572 110.75 80.1072 109.25 82.5072 112.1C83.7072 113.6 83.1072 116 80.7072 116H33.6072C31.2072 116 30.6072 113.6 31.8072 112.1C34.2072 109.25 42.4572 110.75 42.4572 98V14.6C42.4572 12.35 40.2072 10.7 37.0572 10.85L21.3072 11.45C8.70723 11.9 6.90723 27.65 4.20723 29.9C3.60723 30.5 2.85723 30.8 2.25723 30.8C0.907227 30.8 0.00722656 29.45 0.307227 27.5C1.50723 21.35 2.10723 17.9 3.15723 11.6C3.60723 8.89999 5.25723 7.54999 7.80723 7.39999C22.3572 6.79999 28.6572 6.19999 42.4572 6.19999ZM146.146 65.9L135.946 44.3L128.146 65.9H146.146ZM149.446 6.5L193.846 101.9C194.896 104.15 197.446 107.45 199.396 108.8C202.546 110.9 205.696 111.5 205.696 113.75C205.696 115.1 204.646 116 203.296 116H156.946C155.596 116 154.546 115.1 154.546 113.75C154.546 112.4 156.046 111.2 159.796 109.55C162.346 108.5 163.096 105.65 161.746 102.05C159.196 95.15 153.796 82.55 148.246 70.4H126.646L116.446 98.75C112.546 109.7 119.596 110.15 122.596 112.1C124.396 113.15 124.546 116 121.996 116H99.0455C96.6455 116 95.8955 113.3 97.5455 111.8C100.696 108.95 106.996 110.6 111.196 98.75L144.346 6.5C144.796 5.44999 145.846 4.84999 146.896 4.84999C147.946 4.84999 148.996 5.44999 149.446 6.5ZM243.03 25.4V67.55C245.88 63.95 250.83 61.85 256.83 61.85C280.98 61.85 282.93 14.9 249.48 14.9C246.93 14.9 244.68 15.05 242.58 15.65C243.03 18.35 243.03 21.65 243.03 25.4ZM251.88 116H204.78C202.38 116 201.78 113.6 202.98 112.1C205.38 109.25 213.63 110.75 213.63 98V24.2C213.63 11.45 205.38 12.95 202.98 10.1C201.78 8.6 202.38 6.19999 204.78 6.19999H228.03C234.33 6.19999 238.08 7.39999 240.18 9.95C246.18 6.79999 253.83 5 262.68 5C309.78 5 314.73 56.15 273.18 65.15C291.03 73.85 296.13 96.8 300.78 103.25C304.53 108.5 308.28 107.45 309.93 109.25C311.13 110.6 310.38 112.4 308.13 113.6C304.08 115.85 298.68 117.2 292.08 117.2C254.58 117.2 272.28 66.95 253.68 66.95C244.83 66.95 243.03 78.2 243.03 96.35C243.03 112.1 249.93 107.6 253.68 112.1C254.88 113.6 254.28 116 251.88 116ZM347.868 24.2V98C347.868 110.75 356.118 109.25 358.518 112.1C359.718 113.6 359.118 116 356.718 116H309.618C307.218 116 306.618 113.6 307.818 112.1C310.218 109.25 318.468 110.75 318.468 98V24.2C318.468 11.45 310.218 12.95 307.818 10.1C306.618 8.6 307.218 6.19999 309.618 6.19999H356.718C359.118 6.19999 359.718 8.6 358.518 10.1C356.118 12.95 347.868 11.45 347.868 24.2ZM397.335 24.2V65.75C407.535 39.8 421.185 14.6 430.035 5.75C433.635 2.14999 437.235 0.499994 441.435 0.499994C449.985 0.499994 456.585 6.5 456.435 14.75C456.435 18.5 454.935 22.1 451.785 25.1C442.485 34.25 431.385 25.4 420.735 36.05C416.385 40.4 410.235 49.85 404.535 60.8C406.785 60.05 409.485 59.75 412.185 59.75C439.935 59.75 446.235 95.3 452.085 103.25C455.835 108.5 459.585 107.45 461.235 109.25C462.435 110.45 461.835 112.4 459.435 113.6C455.085 116 449.535 117.2 443.385 117.2C405.885 117.2 423.585 64.4 407.685 64.4C399.135 64.4 397.335 79.7 397.335 97.85C397.335 110.6 405.585 109.25 407.985 112.1C409.185 113.6 408.585 116 406.185 116H359.085C356.685 116 356.085 113.6 357.285 112.1C359.685 109.25 367.935 110.75 367.935 98V24.2C367.935 11.45 359.685 12.95 357.285 10.1C356.085 8.6 356.685 6.19999 359.085 6.19999H406.185C408.585 6.19999 409.185 8.6 407.985 10.1C405.585 12.95 397.335 11.45 397.335 24.2Z" fill="#282425"/>
</svg>
