<svg width="321" height="110" viewBox="0 0 321 110" fill="none" xmlns="http://www.w3.org/2000/svg">
<path d="M42.591 0.199992H71.991C85.791 0.199992 92.091 0.799993 106.641 1.39999C109.191 1.54999 110.841 2.89999 111.291 5.59999C112.341 11.9 112.941 15.35 114.141 21.5C114.441 23.45 113.541 24.8 112.191 24.8C111.591 24.8 110.841 24.5 110.241 23.9C107.541 21.65 105.741 5.9 93.141 5.45L77.391 4.84999C74.241 4.7 71.991 6.34999 71.991 8.59999V92C71.991 104.75 80.241 103.25 82.641 106.1C83.841 107.6 83.241 110 80.841 110H33.741C31.341 110 30.741 107.6 31.941 106.1C34.341 103.25 42.591 104.75 42.591 92V8.59999C42.591 6.34999 40.341 4.7 37.191 4.84999L21.441 5.45C8.84102 5.9 7.04102 21.65 4.34102 23.9C3.74102 24.5 2.99102 24.8 2.39102 24.8C1.04102 24.8 0.141016 23.45 0.441016 21.5C1.64102 15.35 2.24102 11.9 3.29102 5.59999C3.74102 2.89999 5.39102 1.54999 7.94102 1.39999C22.491 0.799993 28.791 0.199992 42.591 0.199992ZM113.406 0.199992H151.656C166.356 0.199992 180.756 0.799993 195.306 1.39999C197.856 1.54999 199.506 2.89999 199.956 5.59999C201.006 11.9 201.606 15.35 202.806 21.5C203.106 23.45 202.206 24.8 200.856 24.8C200.256 24.8 199.506 24.5 198.906 23.9C196.206 21.65 194.406 5.9 181.806 5.45C177.306 5.3 161.406 4.99999 157.056 4.84999C153.906 4.7 151.656 6.34999 151.656 8.59999V52.85H169.056C181.806 52.85 180.306 43.1 183.156 40.7C183.606 40.25 184.206 40.1 184.806 40.1C186.006 40.1 187.056 40.85 187.056 42.5V67.7C187.056 69.35 186.006 70.1 184.806 70.1C184.206 70.1 183.606 69.95 183.156 69.5C180.306 67.1 181.806 57.35 169.056 57.35H151.656V101.6C151.656 103.85 153.906 105.5 157.056 105.35C161.406 105.2 177.306 104.9 181.806 104.75C194.406 104.3 196.206 88.55 198.906 86.3C199.506 85.7 200.256 85.4 200.856 85.4C202.206 85.4 203.106 86.75 202.806 88.7C201.606 94.85 201.006 98.3 199.956 104.6C199.506 107.3 197.856 108.65 195.306 108.8C180.756 109.4 166.356 110 151.656 110H113.406C111.006 110 110.406 107.6 111.606 106.1C114.006 103.25 122.256 104.75 122.256 92V18.2C122.256 5.45 114.006 6.94999 111.606 4.1C110.406 2.6 111.006 0.199992 113.406 0.199992ZM242.578 18.2V59.6C243.778 59.75 244.978 59.9 246.478 59.9H274.678C276.478 59.9 277.978 59.75 279.328 59.45V18.2C279.328 5.45 271.078 6.94999 268.678 4.1C267.478 2.6 268.078 0.199992 270.478 0.199992H317.578C319.978 0.199992 320.578 2.6 319.378 4.1C316.978 6.94999 308.728 5.45 308.728 18.2V92C308.728 104.75 316.978 103.25 319.378 106.1C320.578 107.6 319.978 110 317.578 110H270.478C268.078 110 267.478 107.6 268.678 106.1C271.078 103.25 279.328 104.75 279.328 92V64.85C277.978 64.55 276.478 64.4 274.678 64.4H246.478C244.978 64.4 243.778 64.55 242.578 64.7V92C242.578 104.75 250.828 103.25 253.228 106.1C254.428 107.6 253.828 110 251.428 110H204.328C201.928 110 201.328 107.6 202.528 106.1C204.928 103.25 213.178 104.75 213.178 92V18.2C213.178 5.45 204.928 6.94999 202.528 4.1C201.328 2.6 201.928 0.199992 204.328 0.199992H251.428C253.828 0.199992 254.428 2.6 253.228 4.1C250.828 6.94999 242.578 5.45 242.578 18.2Z" fill="#282425"/>
</svg>
