<svg width="333" height="113" viewBox="0 0 333 113" fill="none" xmlns="http://www.w3.org/2000/svg">
<path d="M77.3281 76.95V93C77.3281 105.75 85.5781 104.25 87.9781 107.1C89.1781 108.6 88.5781 111 86.1781 111H39.9781C37.5781 111 36.9781 108.6 38.1781 107.1C40.5781 104.25 48.8281 105.75 48.8281 93V82.05L11.9281 15.3C11.3281 14.25 10.7281 13.35 10.1281 12.45C6.82813 6.59999 0.078125 6.74999 0.078125 3.45C0.078125 2.1 1.12813 1.19999 2.47813 1.19999H48.8281C50.1781 1.19999 51.2281 2.1 51.2281 3.45C51.2281 4.8 49.7281 5.99999 45.9781 7.65C43.4281 8.69999 42.2281 11.7 44.0281 15.15L74.4781 71.55L97.4281 18.45C102.078 7.49999 95.0281 7.34999 92.1781 5.55C90.3781 4.35 90.3781 1.19999 92.9281 1.19999H116.328C118.728 1.19999 119.178 3.89999 117.528 5.39999C114.078 8.24999 107.778 6.59999 102.678 18.45L77.3281 76.95ZM166.478 112.2C94.3281 112.2 94.4781 -1.43051e-06 166.478 -1.43051e-06C238.778 -1.43051e-06 238.628 112.2 166.478 112.2ZM166.478 5.1C132.878 5.1 132.878 106.95 166.478 106.95C199.328 106.95 199.328 5.1 166.478 5.1ZM261.994 67.95C261.994 82.5 264.244 103.2 287.344 103.2C305.644 103.2 315.394 92.4 315.394 69C315.394 69 315.394 43.95 315.394 19.2C315.394 6.45 307.144 7.94999 304.744 5.1C303.544 3.6 304.144 1.19999 306.544 1.19999H329.494C331.894 1.19999 332.494 3.6 331.294 5.1C328.894 7.94999 320.644 6.45 320.644 19.2C320.644 43.35 320.644 49.8 320.644 73.95C320.644 93.9 310.144 112.35 274.444 112.35C238.744 112.35 232.594 89.1 232.594 68.1C232.594 68.1 232.594 48 232.594 19.2C232.594 6.45 224.344 7.94999 221.944 5.1C220.744 3.6 221.344 1.19999 223.744 1.19999H270.844C273.244 1.19999 273.844 3.6 272.644 5.1C270.244 7.94999 261.994 6.45 261.994 19.2C261.994 47.7 261.994 62.85 261.994 67.95Z" fill="#282425"/>
</svg>
